<svg width="85" height="24" viewBox="0 0 85 24" fill="none" xmlns="http://www.w3.org/2000/svg">
<g clip-path="url(#clip0_113_614)">
<path d="M45.8336 15.4694C45.8336 18.0467 42.6073 17.8939 42.6073 17.8939H39.3811V13.2357H42.6073C45.9297 13.2167 45.8336 15.4694 45.8336 15.4694ZM39.3811 6.13367H41.8393C44.3933 6.26746 44.2972 8.15728 44.2972 8.15728C44.2972 10.5055 41.4742 10.5438 41.4742 10.5438H39.3811V6.13367ZM45.2384 11.4602C45.2384 11.4602 47.4467 10.5248 47.4276 8.04274C47.4276 8.04274 47.7634 3.97649 42.3433 3.48004H36.3277V20.5285H43.2219C43.2219 20.5285 48.9831 20.5478 48.9831 15.7175C48.9831 15.7175 49.1175 12.4338 45.2384 11.4602ZM29.6729 0.139202H54.9938V23.8608H29.6729V0.139202Z" fill="#1F2937"/>
<path d="M16.6334 15.4694C16.6334 18.0467 13.4071 17.8939 13.4071 17.8939H10.1809V13.2357H13.4071C16.7295 13.2167 16.6334 15.4694 16.6334 15.4694ZM10.1809 6.13367H12.6391C15.1931 6.26746 15.097 8.15728 15.097 8.15728C15.097 10.5055 12.274 10.5438 12.274 10.5438H10.1809V6.13367ZM16.0382 11.4602C16.0382 11.4602 18.2465 10.5248 18.2274 8.04274C18.2274 8.04274 18.5632 3.97649 13.1431 3.48004H7.12748V20.5285H14.0217C14.0217 20.5285 19.7829 20.5478 19.7829 15.7175C19.7829 15.7175 19.9173 12.4338 16.0382 11.4602ZM0.472656 0.139202H25.7936V23.8608H0.472656V0.139202Z" fill="#1F2937"/>
<path d="M79.0271 4.70213V7.85222C79.0271 7.85222 75.9352 5.96217 72.517 5.92391C72.517 5.92391 66.1415 5.80019 65.8534 12C65.8534 12 65.623 17.7034 72.4403 18.028C72.4403 18.028 75.3017 18.3717 79.1808 15.9089V19.1735C79.1808 19.1735 73.9767 22.2471 67.9466 19.8798C67.9466 19.8798 62.8768 18.0379 62.6846 12C62.6846 12 62.4733 5.79034 69.2332 3.72847C69.2332 3.72847 71.0385 3.04118 74.2839 3.34656C74.2839 3.34656 76.2233 3.53763 79.0271 4.70213ZM58.8721 23.8608H84.193V0.139202H58.8721V23.8608Z" fill="#1F2937"/>
</g>
<defs>
<clipPath id="clip0_113_614">
<rect width="84" height="24" fill="white" transform="translate(0.333008)"/>
</clipPath>
</defs>
</svg>
