<svg width="49" height="24" viewBox="0 0 49 24" fill="none" xmlns="http://www.w3.org/2000/svg">
<g clip-path="url(#clip0_113_620)">
<path d="M24.5115 14.0506C23.7968 18.6624 19.9888 23.8706 12.4391 23.9543C5.76243 24.0283 0.689601 18.8535 0.668021 11.8446C0.649492 5.79482 5.55299 0.0329987 12.3791 -0.000290238C20.6462 -0.0405569 23.7746 6.07029 24.3826 8.47873C23.9838 8.47873 16.5916 8.46731 16.5916 8.46731C15.5708 7.20193 14.9229 6.58553 12.4176 6.58553C10.1494 6.58553 7.28304 8.70176 7.34216 12.089C7.39914 15.3587 9.99864 17.3722 12.3959 17.4163C15.5056 17.4734 16.737 15.9245 16.737 15.7873H13.5406V10.1298H24.4488C25.2575 4.09411 30.4974 0.0464653 36.2419 0.0439764C43.31 0.0408653 48.2946 5.39318 48.2857 12.2116C48.2798 16.7048 45.8356 19.5521 45.8356 19.5521L48.668 23.2946L42.198 23.5147L41.6804 22.8249C41.3202 23.0213 39.0411 24.024 36.2314 23.9991C30.2554 23.9459 25.4598 20.2418 24.5115 14.0506V14.0506ZM41.3529 13.7807C42.427 10.3217 40.214 6.59251 36.2601 6.57785C33.2957 6.56682 30.9214 8.9406 30.9835 12.1109C31.0554 15.7802 34.0747 17.8789 37.4064 17.347L34.0028 12.9182L40.5015 12.698L41.3529 13.7807Z" fill="#1F2937"/>
</g>
<defs>
<clipPath id="clip0_113_620">
<rect width="48" height="24" fill="white" transform="translate(0.666992)"/>
</clipPath>
</defs>
</svg>
