<svg width="184" height="24" viewBox="0 0 184 24" fill="none" xmlns="http://www.w3.org/2000/svg">
<path fill-rule="evenodd" clip-rule="evenodd" d="M172 1.5C172.325 1.5 172.613 1.70919 172.713 2.01819L174.982 9H182.5C182.829 9 183.119 9.21402 183.216 9.52798C183.314 9.84193 183.195 10.1827 182.924 10.3685L176.83 14.5477L179.179 21.5102C179.284 21.8193 179.176 22.1605 178.913 22.354C178.651 22.5474 178.293 22.5488 178.029 22.3573L172 17.9887L165.971 22.3573C165.707 22.5488 165.349 22.5474 165.087 22.354C164.824 22.1605 164.716 21.8193 164.821 21.5102L167.171 14.5477L161.076 10.3685C160.805 10.1827 160.686 9.84193 160.784 9.52798C160.881 9.21402 161.171 9 161.5 9H169.018L171.287 2.01819C171.387 1.70919 171.675 1.5 172 1.5ZM172 4.67651L170.276 9.98181C170.175 10.2908 169.887 10.5 169.563 10.5H163.92L168.487 13.6315C168.763 13.8213 168.88 14.1718 168.773 14.4898L166.993 19.7646L171.56 16.4552C171.823 16.2649 172.178 16.2649 172.44 16.4552L177.007 19.7646L175.227 14.4898C175.12 14.1718 175.237 13.8213 175.513 13.6315L180.08 10.5H174.438C174.113 10.5 173.825 10.2908 173.724 9.98181L172 4.67651Z" fill="#4B5563"/>
<path d="M18.4687 22.5002C18.3109 22.5008 18.1568 22.4516 18.0286 22.3596L12 17.989L5.97139 22.3596C5.84259 22.453 5.68742 22.5031 5.52832 22.5025C5.36921 22.5019 5.21441 22.4507 5.08629 22.3564C4.95818 22.262 4.86339 22.1294 4.81563 21.9776C4.76787 21.8258 4.76961 21.6628 4.82061 21.5121L7.17186 14.5479L1.07811 10.369C0.946113 10.2786 0.846491 10.1483 0.793797 9.99724C0.741103 9.84617 0.7381 9.68221 0.785225 9.52932C0.83235 9.37642 0.927135 9.2426 1.05573 9.14741C1.18432 9.05222 1.33999 9.00065 1.49998 9.00023H9.0178L11.2865 2.0182C11.3354 1.86746 11.4308 1.73607 11.559 1.64289C11.6871 1.5497 11.8415 1.49951 12 1.49951C12.1584 1.49951 12.3128 1.5497 12.441 1.64289C12.5692 1.73607 12.6645 1.86746 12.7134 2.0182L14.9822 9.00257H22.5C22.6602 9.00249 22.8162 9.05371 22.9452 9.14871C23.0741 9.24372 23.1693 9.37753 23.2167 9.53054C23.2642 9.68355 23.2613 9.84773 23.2087 9.99903C23.1561 10.1503 23.0564 10.2808 22.9242 10.3713L16.8281 14.5479L19.178 21.5102C19.216 21.6229 19.2267 21.7431 19.2092 21.8608C19.1917 21.9785 19.1464 22.0903 19.0771 22.187C19.0078 22.2837 18.9165 22.3626 18.8107 22.417C18.7049 22.4715 18.5877 22.5 18.4687 22.5002Z" fill="#1F2937"/>
<path d="M58.4687 22.5002C58.3109 22.5008 58.1568 22.4516 58.0286 22.3596L52 17.989L45.9714 22.3596C45.8426 22.453 45.6874 22.5031 45.5283 22.5025C45.3692 22.5019 45.2144 22.4507 45.0863 22.3564C44.9582 22.262 44.8634 22.1294 44.8156 21.9776C44.7679 21.8258 44.7696 21.6628 44.8206 21.5121L47.1719 14.5479L41.0781 10.369C40.9461 10.2786 40.8465 10.1483 40.7938 9.99724C40.7411 9.84617 40.7381 9.68221 40.7852 9.52932C40.8324 9.37642 40.9271 9.2426 41.0557 9.14741C41.1843 9.05222 41.34 9.00065 41.5 9.00023H49.0178L51.2865 2.0182C51.3354 1.86746 51.4308 1.73607 51.559 1.64289C51.6871 1.5497 51.8415 1.49951 52 1.49951C52.1584 1.49951 52.3128 1.5497 52.441 1.64289C52.5692 1.73607 52.6645 1.86746 52.7134 2.0182L54.9822 9.00257H62.5C62.6602 9.00249 62.8162 9.05371 62.9452 9.14871C63.0741 9.24372 63.1693 9.37753 63.2167 9.53054C63.2642 9.68355 63.2613 9.84773 63.2087 9.99903C63.1561 10.1503 63.0564 10.2808 62.9242 10.3713L56.8281 14.5479L59.178 21.5102C59.216 21.6229 59.2267 21.7431 59.2092 21.8608C59.1917 21.9785 59.1464 22.0903 59.0771 22.187C59.0078 22.2837 58.9165 22.3626 58.8107 22.417C58.7049 22.4715 58.5877 22.5 58.4687 22.5002Z" fill="#1F2937"/>
<path d="M98.4687 22.5002C98.3109 22.5008 98.1568 22.4516 98.0286 22.3596L92 17.989L85.9714 22.3596C85.8426 22.453 85.6874 22.5031 85.5283 22.5025C85.3692 22.5019 85.2144 22.4507 85.0863 22.3564C84.9582 22.262 84.8634 22.1294 84.8156 21.9776C84.7679 21.8258 84.7696 21.6628 84.8206 21.5121L87.1719 14.5479L81.0781 10.369C80.9461 10.2786 80.8465 10.1483 80.7938 9.99724C80.7411 9.84617 80.7381 9.68221 80.7852 9.52932C80.8324 9.37642 80.9271 9.2426 81.0557 9.14741C81.1843 9.05222 81.34 9.00065 81.5 9.00023H89.0178L91.2865 2.0182C91.3354 1.86746 91.4308 1.73607 91.559 1.64289C91.6871 1.5497 91.8415 1.49951 92 1.49951C92.1584 1.49951 92.3128 1.5497 92.441 1.64289C92.5692 1.73607 92.6645 1.86746 92.7134 2.0182L94.9822 9.00257H102.5C102.66 9.00249 102.816 9.05371 102.945 9.14871C103.074 9.24372 103.169 9.37753 103.217 9.53054C103.264 9.68355 103.261 9.84773 103.209 9.99903C103.156 10.1503 103.056 10.2808 102.924 10.3713L96.8281 14.5479L99.178 21.5102C99.216 21.6229 99.2267 21.7431 99.2092 21.8608C99.1917 21.9785 99.1464 22.0903 99.0771 22.187C99.0078 22.2837 98.9165 22.3626 98.8107 22.417C98.7049 22.4715 98.5877 22.5 98.4687 22.5002Z" fill="#1F2937"/>
<path d="M138.469 22.5002C138.311 22.5008 138.157 22.4516 138.029 22.3596L132 17.989L125.971 22.3596C125.843 22.453 125.687 22.5031 125.528 22.5025C125.369 22.5019 125.214 22.4507 125.086 22.3564C124.958 22.262 124.863 22.1294 124.816 21.9776C124.768 21.8258 124.77 21.6628 124.821 21.5121L127.172 14.5479L121.078 10.369C120.946 10.2786 120.846 10.1483 120.794 9.99724C120.741 9.84617 120.738 9.68221 120.785 9.52932C120.832 9.37642 120.927 9.2426 121.056 9.14741C121.184 9.05222 121.34 9.00065 121.5 9.00023H129.018L131.287 2.0182C131.335 1.86746 131.431 1.73607 131.559 1.64289C131.687 1.5497 131.842 1.49951 132 1.49951C132.158 1.49951 132.313 1.5497 132.441 1.64289C132.569 1.73607 132.665 1.86746 132.713 2.0182L134.982 9.00257H142.5C142.66 9.00249 142.816 9.05371 142.945 9.14871C143.074 9.24372 143.169 9.37753 143.217 9.53054C143.264 9.68355 143.261 9.84773 143.209 9.99903C143.156 10.1503 143.056 10.2808 142.924 10.3713L136.828 14.5479L139.178 21.5102C139.216 21.6229 139.227 21.7431 139.209 21.8608C139.192 21.9785 139.146 22.0903 139.077 22.187C139.008 22.2837 138.916 22.3626 138.811 22.417C138.705 22.4715 138.588 22.5 138.469 22.5002Z" fill="#1F2937"/>
</svg>
