<svg width="55" height="25" viewBox="0 0 55 25" fill="none" xmlns="http://www.w3.org/2000/svg">
<path d="M5.14 21.21C5.14 22.03 5.31 22.6 5.65 22.92C5.99 23.22 6.58 23.37 7.42 23.37V24C5.58 23.92 4.37 23.88 3.79 23.88C3.21 23.88 2 23.92 0.16 24V23.37C1 23.37 1.59 23.22 1.93 22.92C2.27 22.6 2.44 22.03 2.44 21.21V4.08C2.44 3.16 2.27 2.49 1.93 2.07C1.59 1.65 1 1.44 0.16 1.44V0.809998C0.78 0.869999 1.4 0.899999 2.02 0.899999C3.28 0.899999 4.32 0.759999 5.14 0.479999V21.21ZM22.574 20.76C22.574 21.68 22.744 22.35 23.084 22.77C23.424 23.19 24.014 23.4 24.854 23.4V24.03C24.234 23.97 23.614 23.94 22.994 23.94C21.734 23.94 20.694 24.08 19.874 24.36V20.82C19.394 22.06 18.714 22.97 17.834 23.55C16.954 24.13 15.994 24.42 14.954 24.42C13.594 24.42 12.554 24.04 11.834 23.28C11.474 22.88 11.214 22.37 11.054 21.75C10.914 21.13 10.844 20.33 10.844 19.35V11.82C10.844 10.9 10.674 10.23 10.334 9.81C9.99398 9.39 9.40398 9.18 8.56398 9.18V8.55C9.18398 8.61 9.80398 8.64 10.424 8.64C11.684 8.64 12.724 8.5 13.544 8.22V20.01C13.544 20.77 13.584 21.39 13.664 21.87C13.764 22.33 13.974 22.71 14.294 23.01C14.634 23.31 15.144 23.46 15.824 23.46C16.584 23.46 17.274 23.22 17.894 22.74C18.514 22.26 18.994 21.61 19.334 20.79C19.694 19.95 19.874 19.03 19.874 18.03V11.82C19.874 10.9 19.704 10.23 19.364 9.81C19.024 9.39 18.434 9.18 17.594 9.18V8.55C18.214 8.61 18.834 8.64 19.454 8.64C20.714 8.64 21.754 8.5 22.574 8.22V20.76ZM38.8356 21.87C39.1956 22.37 39.4956 22.73 39.7356 22.95C39.9956 23.15 40.3156 23.29 40.6956 23.37V24C39.6556 23.92 38.9456 23.88 38.5656 23.88C37.8856 23.88 36.7056 23.92 35.0256 24V23.37C35.3456 23.37 35.6156 23.31 35.8356 23.19C36.0756 23.07 36.1956 22.91 36.1956 22.71C36.1956 22.57 36.1556 22.45 36.0756 22.35L32.6556 17.37L30.4656 20.22C29.9056 20.96 29.6256 21.56 29.6256 22.02C29.6256 22.44 29.8156 22.77 30.1956 23.01C30.5956 23.23 31.1456 23.36 31.8456 23.4V24C30.8056 23.94 29.6656 23.91 28.4256 23.91C27.5456 23.91 26.7856 23.94 26.1456 24V23.4C26.5456 23.36 26.9456 23.18 27.3456 22.86C27.7656 22.54 28.2456 22.02 28.7856 21.3L32.2356 16.77L28.0656 10.68C27.6656 10.1 27.3456 9.72 27.1056 9.54C26.8656 9.34 26.5656 9.22 26.2056 9.18V8.55C27.2456 8.63 27.9556 8.67 28.3356 8.67C29.0156 8.67 30.1956 8.63 31.8756 8.55V9.18C31.5556 9.18 31.2756 9.24 31.0356 9.36C30.8156 9.48 30.7056 9.64 30.7056 9.84C30.7056 9.98 30.7456 10.1 30.8256 10.2L34.0356 14.88L36.1056 11.97C36.7056 11.11 37.0056 10.48 37.0056 10.08C37.0056 9.8 36.8656 9.59 36.5856 9.45C36.3256 9.29 35.8956 9.19 35.2956 9.15V8.55C36.3356 8.61 37.1756 8.64 37.8156 8.64C38.6956 8.64 39.4556 8.61 40.0956 8.55V9.15C39.2756 9.25 38.3956 9.95 37.4556 11.25L34.4256 15.45L38.8356 21.87ZM54.4642 20.4C54.1042 21.5 53.4242 22.45 52.4242 23.25C51.4442 24.03 50.2542 24.42 48.8542 24.42C47.4342 24.42 46.2042 24.1 45.1642 23.46C44.1242 22.8 43.3242 21.89 42.7642 20.73C42.2242 19.55 41.9542 18.19 41.9542 16.65C41.9542 14.91 42.2342 13.4 42.7942 12.12C43.3542 10.84 44.1442 9.86 45.1642 9.18C46.1842 8.48 47.3742 8.13 48.7342 8.13C50.5342 8.13 51.9142 8.68 52.8742 9.78C53.8542 10.86 54.3442 12.51 54.3442 14.73H44.9542C44.8942 15.29 44.8642 15.93 44.8642 16.65C44.8642 17.97 45.0742 19.12 45.4942 20.1C45.9342 21.08 46.5042 21.84 47.2042 22.38C47.9242 22.9 48.6742 23.16 49.4542 23.16C50.4142 23.16 51.2642 22.93 52.0042 22.47C52.7442 22.01 53.3642 21.24 53.8642 20.16L54.4642 20.4ZM48.6142 8.7C47.6742 8.7 46.8642 9.16 46.1842 10.08C45.5042 11 45.0842 12.36 44.9242 14.16H51.4642C51.5042 12.6 51.2742 11.3 50.7742 10.26C50.2942 9.22 49.5742 8.7 48.6142 8.7Z" fill="#1F2937"/>
</svg>
