<svg width="24" height="24" viewBox="0 0 24 24" fill="none" xmlns="http://www.w3.org/2000/svg">
<g clip-path="url(#clip0_1_48)">
<path d="M22.6354 7.80675L12.2397 0.0899625C12.0798 -0.0299875 11.9198 -0.0299875 11.7599 0.0899625L1.64412 7.60683H1.60413V7.64681L1.36423 7.80675C1.24428 7.88671 1.2043 8.00666 1.2043 8.12661V9.606C1.2043 9.8459 1.36423 10.0058 1.60413 10.0058H2.80363V21.2012H3.6033V10.0058H20.3963V21.2012H21.196V10.0058H22.3955C22.6354 10.0058 22.7953 9.8459 22.7953 9.606V8.12661C22.7953 8.00666 22.7557 7.88671 22.6354 7.80675ZM21.9956 9.20616H20.7961H3.20347H2.00397V8.4065H17.9973V7.60683H2.96357L11.9998 0.889629L21.9956 8.32653V9.20616Z" fill="#6B7280"/>
<path d="M12.7995 3.60938H11.2001V4.40904H12.7995V3.60938Z" fill="#6B7280"/>
<path d="M13.999 5.20703H10.0007V6.0067H13.999V5.20703Z" fill="#6B7280"/>
<path d="M5.2027 10.8047H4.40303V11.6044H5.2027V10.8047Z" fill="#6B7280"/>
<path d="M6.80206 10.8047H6.0024V11.6044H6.80206V10.8047Z" fill="#6B7280"/>
<path d="M8.40118 10.8047H7.60152V11.6044H8.40118V10.8047Z" fill="#6B7280"/>
<path d="M10.0005 10.8047H9.20088V11.6044H10.0005V10.8047Z" fill="#6B7280"/>
<path d="M11.5999 10.8047H10.8002V11.6044H11.5999V10.8047Z" fill="#6B7280"/>
<path d="M13.1993 10.8047H12.3996V11.6044H13.1993V10.8047Z" fill="#6B7280"/>
<path d="M14.7986 10.8047H13.999V11.6044H14.7986V10.8047Z" fill="#6B7280"/>
<path d="M16.398 10.8047H15.5983V11.6044H16.398V10.8047Z" fill="#6B7280"/>
<path d="M17.9974 10.8047H17.1977V11.6044H17.9974V10.8047Z" fill="#6B7280"/>
<path d="M19.5967 10.8047H18.7971V11.6044H19.5967V10.8047Z" fill="#6B7280"/>
<path d="M16.3981 14.5626L16.9179 15.0823L17.4776 14.5226L16.2781 13.3231C16.1182 13.1631 15.8783 13.1631 15.7184 13.3231L14.5189 14.5226L15.0786 15.0823L15.5984 14.5626V23.199H12.3997V17.7612L12.9195 18.281L13.4793 17.7212L12.2798 16.5217C12.1199 16.3618 11.88 16.3618 11.72 16.5217L10.5205 17.7212L11.0803 18.281L11.6001 17.7612V23.199H8.4014V19.7604L8.92119 20.2802L9.48095 19.7204L8.28145 18.5209C8.12152 18.361 7.88162 18.361 7.72168 18.5209L6.52218 19.7204L7.08195 20.2802L7.60173 19.7604V23.199H3.20357V23.9986H7.60173H8.4014H11.6001H12.3997H15.5984H16.3981H21.1961V23.199H16.3981V14.5626Z" fill="#6B7280"/>
<path d="M8.4013 12.8047H6.40213V13.6043H8.4013V12.8047Z" fill="#6B7280"/>
<path d="M8.40136 14.4023H4.40303V15.202H8.40136V14.4023Z" fill="#6B7280"/>
<path d="M8.40136 16.0039H4.40303V16.8036H8.40136V16.0039Z" fill="#6B7280"/>
<path d="M9.20097 13.6043H11.6V14.8038H12.3996V13.2045C12.3996 12.9646 12.2397 12.8047 11.9998 12.8047H9.20097V13.6043Z" fill="#6B7280"/>
</g>
<defs>
<clipPath id="clip0_1_48">
<rect width="24" height="24" fill="white"/>
</clipPath>
</defs>
</svg>
