<svg width="49" height="48" viewBox="0 0 49 48" fill="none" xmlns="http://www.w3.org/2000/svg">
<rect width="49" height="48" fill="#F3F4F6"/>
<rect width="16" height="16" transform="translate(17 16)" fill="#F3F4F6"/>
<path fill-rule="evenodd" clip-rule="evenodd" d="M29 18.5C28.4477 18.5 28 18.9477 28 19.5C28 19.6724 28.0436 19.8347 28.1205 19.9763C28.1233 19.9808 28.126 19.9855 28.1286 19.9902C28.1311 19.9947 28.1336 19.9992 28.136 20.0038C28.3094 20.3006 28.6314 20.5 29 20.5C29.5523 20.5 30 20.0523 30 19.5C30 18.9477 29.5523 18.5 29 18.5ZM27.5573 20.8852C27.9213 21.2641 28.4331 21.5 29 21.5C30.1046 21.5 31 20.6046 31 19.5C31 18.3954 30.1046 17.5 29 17.5C27.8954 17.5 27 18.3954 27 19.5C27 19.6776 27.0232 19.8499 27.0666 20.0139L22.4427 22.6148C22.0787 22.2359 21.5669 22 21 22C19.8954 22 19 22.8954 19 24C19 25.1046 19.8954 26 21 26C21.5669 26 22.0787 25.7641 22.4427 25.3852L27.0666 27.9861C27.0232 28.1501 27 28.3224 27 28.5C27 29.6046 27.8954 30.5 29 30.5C30.1046 30.5 31 29.6046 31 28.5C31 27.3954 30.1046 26.5 29 26.5C28.4331 26.5 27.9213 26.7359 27.5573 27.1148L22.9334 24.5139C22.9768 24.3499 23 24.1776 23 24C23 23.8224 22.9768 23.6501 22.9334 23.4861L27.5573 20.8852ZM21.864 23.4962C21.8664 23.5008 21.8689 23.5053 21.8714 23.5098C21.874 23.5145 21.8767 23.5191 21.8795 23.5237C21.9564 23.6653 22 23.8276 22 24C22 24.1724 21.9564 24.3347 21.8795 24.4763C21.8767 24.4809 21.874 24.4855 21.8714 24.4902C21.8689 24.4947 21.8664 24.4992 21.864 24.5038C21.6906 24.8006 21.3686 25 21 25C20.4477 25 20 24.5523 20 24C20 23.4477 20.4477 23 21 23C21.3686 23 21.6906 23.1994 21.864 23.4962ZM28.1205 28.0237C28.1232 28.0192 28.126 28.0145 28.1286 28.0098C28.1311 28.0053 28.1336 28.0008 28.136 27.9962C28.3094 27.6994 28.6314 27.5 29 27.5C29.5523 27.5 30 27.9477 30 28.5C30 29.0523 29.5523 29.5 29 29.5C28.4477 29.5 28 29.0523 28 28.5C28 28.3276 28.0436 28.1653 28.1205 28.0237Z" fill="#1F2937"/>
</svg>
