<svg width="142" height="22" viewBox="0 0 142 22" fill="none" xmlns="http://www.w3.org/2000/svg">
<g clip-path="url(#clip0_1_115)">
<path d="M16.0962 19.2505C15.9496 19.2511 15.805 19.2165 15.6745 19.1497L10.9995 16.7022L6.32454 19.1497C6.17273 19.2295 6.00157 19.2651 5.83052 19.2525C5.65947 19.2399 5.49539 19.1796 5.35693 19.0784C5.21847 18.9771 5.11118 18.8391 5.04727 18.6799C4.98335 18.5208 4.96537 18.3469 4.99537 18.178L5.91204 13.0172L2.13537 9.35051C2.01754 9.23293 1.93395 9.08548 1.89358 8.92398C1.85321 8.76249 1.85757 8.59305 1.9062 8.43385C1.95933 8.27093 2.05707 8.12617 2.18831 8.01599C2.31955 7.90581 2.47905 7.83463 2.6487 7.81051L7.8737 7.04968L10.1745 2.34718C10.2496 2.1922 10.3668 2.06149 10.5127 1.97004C10.6586 1.87858 10.8273 1.83008 10.9995 1.83008C11.1717 1.83008 11.3405 1.87858 11.4864 1.97004C11.6323 2.06149 11.7495 2.1922 11.8245 2.34718L14.1529 7.04051L19.3779 7.80135C19.5475 7.82546 19.707 7.89665 19.8383 8.00683C19.9695 8.11701 20.0672 8.26177 20.1204 8.42468C20.169 8.58388 20.1734 8.75332 20.133 8.91482C20.0926 9.07631 20.009 9.22376 19.8912 9.34135L16.1145 13.008L17.0312 18.1688C17.0639 18.3407 17.0468 18.5183 16.9818 18.6808C16.9169 18.8432 16.8068 18.9836 16.6645 19.0855C16.4985 19.2018 16.2987 19.2599 16.0962 19.2505Z" fill="#1F2937"/>
</g>
<g clip-path="url(#clip1_1_115)">
<path d="M46.0962 19.2505C45.9496 19.2511 45.805 19.2165 45.6745 19.1497L40.9995 16.7022L36.3245 19.1497C36.1727 19.2295 36.0016 19.2651 35.8305 19.2525C35.6595 19.2399 35.4954 19.1796 35.3569 19.0784C35.2185 18.9771 35.1112 18.8391 35.0473 18.6799C34.9834 18.5208 34.9654 18.3469 34.9954 18.178L35.912 13.0172L32.1354 9.35051C32.0175 9.23293 31.934 9.08548 31.8936 8.92398C31.8532 8.76249 31.8576 8.59305 31.9062 8.43385C31.9593 8.27093 32.0571 8.12617 32.1883 8.01599C32.3196 7.90581 32.4791 7.83463 32.6487 7.81051L37.8737 7.04968L40.1745 2.34718C40.2496 2.1922 40.3668 2.06149 40.5127 1.97004C40.6586 1.87858 40.8273 1.83008 40.9995 1.83008C41.1717 1.83008 41.3405 1.87858 41.4864 1.97004C41.6323 2.06149 41.7495 2.1922 41.8245 2.34718L44.1529 7.04051L49.3779 7.80135C49.5475 7.82546 49.707 7.89665 49.8383 8.00682C49.9695 8.117 50.0672 8.26176 50.1204 8.42468C50.169 8.58388 50.1734 8.75332 50.133 8.91482C50.0926 9.07631 50.009 9.22376 49.8912 9.34135L46.1145 13.008L47.0312 18.1688C47.0639 18.3407 47.0468 18.5183 46.9818 18.6808C46.9169 18.8432 46.8068 18.9836 46.6645 19.0855C46.4985 19.2018 46.2987 19.2599 46.0962 19.2505Z" fill="#1F2937"/>
</g>
<g clip-path="url(#clip2_1_115)">
<path d="M76.0962 20.2505C75.9496 20.2511 75.805 20.2165 75.6745 20.1497L70.9995 17.7022L66.3245 20.1497C66.1727 20.2295 66.0016 20.2651 65.8305 20.2525C65.6595 20.2399 65.4954 20.1796 65.3569 20.0784C65.2185 19.9771 65.1112 19.8391 65.0473 19.6799C64.9834 19.5208 64.9654 19.3469 64.9954 19.178L65.912 14.0172L62.1354 10.3505C62.0175 10.2329 61.934 10.0855 61.8936 9.92398C61.8532 9.76249 61.8576 9.59305 61.9062 9.43385C61.9593 9.27093 62.0571 9.12617 62.1883 9.01599C62.3196 8.90581 62.4791 8.83463 62.6487 8.81051L67.8737 8.04968L70.1745 3.34718C70.2496 3.1922 70.3668 3.06149 70.5127 2.97004C70.6586 2.87858 70.8273 2.83008 70.9995 2.83008C71.1717 2.83008 71.3405 2.87858 71.4864 2.97004C71.6323 3.06149 71.7495 3.1922 71.8245 3.34718L74.1529 8.04051L79.3779 8.80135C79.5475 8.82546 79.707 8.89665 79.8383 9.00683C79.9695 9.11701 80.0672 9.26177 80.1204 9.42468C80.169 9.58388 80.1734 9.75332 80.133 9.91482C80.0926 10.0763 80.009 10.2238 79.8912 10.3413L76.1145 14.008L77.0312 19.1688C77.0639 19.3407 77.0468 19.5183 76.9818 19.6808C76.9168 19.8432 76.8068 19.9836 76.6645 20.0855C76.4985 20.2018 76.2987 20.2599 76.0962 20.2505Z" fill="#1F2937"/>
</g>
<g clip-path="url(#clip3_1_115)">
<path d="M106.576 20.2505C106.425 20.2511 106.276 20.2165 106.142 20.1497L101.327 17.7022L96.513 20.1497C96.3567 20.2295 96.1804 20.2651 96.0043 20.2525C95.8281 20.2399 95.6592 20.1796 95.5166 20.0784C95.374 19.9771 95.2635 19.8391 95.1977 19.6799C95.1319 19.5208 95.1134 19.3469 95.1443 19.178L96.0882 14.0172L92.1991 10.3505C92.0777 10.2329 91.9917 10.0855 91.9501 9.92398C91.9085 9.76249 91.913 9.59305 91.9631 9.43385C92.0178 9.27093 92.1184 9.12617 92.2536 9.01599C92.3887 8.90581 92.553 8.83463 92.7277 8.81051L98.1083 8.04968L100.478 3.34718C100.555 3.1922 100.676 3.06149 100.826 2.97004C100.976 2.87858 101.15 2.83008 101.327 2.83008C101.505 2.83008 101.678 2.87858 101.829 2.97004C101.979 3.06149 102.1 3.1922 102.177 3.34718L104.575 8.04051L109.955 8.80135C110.13 8.82546 110.294 8.89665 110.429 9.00683C110.564 9.11701 110.665 9.26177 110.72 9.42468C110.77 9.58388 110.774 9.75332 110.733 9.91482C110.691 10.0763 110.605 10.2238 110.484 10.3413L106.595 14.008L107.539 19.1688C107.572 19.3407 107.555 19.5183 107.488 19.6808C107.421 19.8432 107.307 19.9836 107.161 20.0855C106.99 20.2018 106.784 20.2599 106.576 20.2505Z" fill="#1F2937"/>
</g>
<g clip-path="url(#clip4_1_115)">
<path d="M122.401 8.70243L122.396 8.70745L122.393 8.71105L122.388 8.70951L121.543 8.43385L122.394 8.69387M122.401 8.70243L122.394 8.69387M122.401 8.70243L122.406 8.69752L122.401 8.70243ZM122.401 8.70243L122.394 8.69387M134.829 13.1719L135.742 18.3135L135.734 18.3135L131.071 15.8721L130.636 15.6445L130.202 15.8721L125.562 18.3011L126.471 13.181L126.558 12.6914L126.201 12.3449L122.478 8.72943L127.645 7.9769L128.135 7.90565L128.352 7.46149L130.636 2.79281L132.95 7.45693L133.168 7.89696L133.655 7.96774L138.822 8.72026L135.099 12.3357L134.742 12.6822L134.829 13.1719Z" stroke="#1F2937" stroke-width="1.874"/>
</g>
<defs>
<clipPath id="clip0_1_115">
<rect width="22" height="22" fill="white"/>
</clipPath>
<clipPath id="clip1_1_115">
<rect width="22" height="22" fill="white" transform="translate(30)"/>
</clipPath>
<clipPath id="clip2_1_115">
<rect width="22" height="22" fill="white" transform="translate(60)"/>
</clipPath>
<clipPath id="clip3_1_115">
<rect width="22" height="22" fill="white" transform="translate(90)"/>
</clipPath>
<clipPath id="clip4_1_115">
<rect width="22" height="22" fill="white" transform="translate(120)"/>
</clipPath>
</defs>
</svg>
