<svg width="86" height="24" viewBox="0 0 86 24" fill="none" xmlns="http://www.w3.org/2000/svg">
<path d="M15.195 0.558716V0.793192H17.1939L12.1095 17.4247L6.08764 0.793192H8.06999V0.558716H0V0.793192H2.12308L10.4589 23.7821L17.6252 0.793192H19.5498V0.558716H15.195Z" fill="#1F2937"/>
<path d="M51.0887 0.157062V8.14672H50.906C50.5659 6.5736 50.0849 5.04281 49.2474 3.65396C48.2518 2.03116 46.6678 0.207401 44.6023 0.207401C39.8581 0.207401 39.4269 8.78259 39.4269 12.0536C39.4269 14.9823 39.6591 18.0022 40.7124 20.7462C41.4507 22.6696 42.5207 23.6158 44.503 23.6158C46.0789 23.6158 47.754 22.8126 48.592 21.4321C48.8074 21.0719 48.8243 20.6708 48.8243 20.2601V14.0864H46.7501V13.8442H54.3395V14.0864H52.5648V23.3225H52.4071C51.9592 22.5696 51.2544 22.0757 50.3504 22.0757C49.6953 22.0757 49.0562 22.3102 48.4842 22.6285L47.9695 22.9127C46.8088 23.4318 45.6976 23.8077 44.4117 23.8077C38.5226 23.8077 35.3877 17.4746 35.3877 12.2214C35.3877 8.38107 36.8389 4.27274 39.9244 1.87186C41.3083 0.795036 42.984 0 44.7666 0C45.4637 0 46.1519 0.217521 46.7986 0.476838L47.2719 0.660843C47.8104 0.86141 48.3998 1.05448 48.9801 1.05448C49.7021 1.05448 50.3489 0.577121 50.9045 0.159033H51.0883L51.0887 0.157062Z" fill="#1F2937"/>
<path d="M52.8883 0.558809H60.984V0.793153H58.8361V18.5207C58.8361 21.2977 61.6721 22.9881 64.1525 22.9881C66.8225 22.9881 69.0706 21.1135 69.0706 18.3619V0.793416H66.5326V0.558941H85.5702V8.78277H85.4125C85.172 6.60731 84.7578 4.37336 83.2729 2.67539C81.7714 0.95994 79.7307 0.793284 77.6328 0.793284H75.3681V11.3678C75.8329 11.418 76.3056 11.4516 76.778 11.4516C79.6229 11.4516 80.3613 9.477 80.486 7.03407H80.6933V16.312H80.486C80.1291 14.0953 79.1584 11.7186 76.5788 11.7186C76.1725 11.7186 75.7743 11.7442 75.3681 11.7777V23.0882H78.7602C80.5187 23.0882 82.2692 22.3188 83.5135 21.0809C84.5747 20.0259 85.3126 18.6548 85.5698 17.1742C85.7108 16.3459 85.7774 15.5011 85.819 14.6641H86.0001V23.3227H69.6689V23.0882H71.568V0.792101H69.4088V18.4276C69.4088 22.0751 65.9756 23.6902 62.7573 23.6902C59.116 23.6902 55.1016 21.9084 55.1016 17.7086V0.79197H52.8877V0.557495L52.8883 0.558809Z" fill="#1F2937"/>
<path d="M30.7158 12.0283C30.7158 8.70711 29.5377 0.40845 25.0839 0.40845C20.6134 0.40845 19.452 8.69843 19.452 12.0283C19.452 15.3583 20.6218 23.6568 25.0839 23.6568C29.5377 23.6568 30.7157 15.3489 30.7157 12.0279L30.7158 12.0283ZM25.0682 23.9998C22.3893 23.9998 19.8263 22.4849 18.1675 20.4191C16.2763 18.0679 15.3555 15.0315 15.3555 12.0278C15.3555 9.14149 16.2015 6.23841 17.9516 3.93781C19.6768 1.67914 22.2725 0.0639648 25.1601 0.0639648C27.8139 0.0639648 30.3607 1.59529 31.9944 3.63644C33.8774 5.98724 34.8145 9.03214 34.8145 12.036C34.8145 14.9138 33.9602 17.8167 32.2183 20.1174C30.5086 22.3597 27.9286 24 25.0684 24" fill="#1F2937"/>
</svg>
